<svg xmlns="http://www.w3.org/2000/svg" xmlns:xlink="http://www.w3.org/1999/xlink" xmlns:lucid="lucid" width="1680" height="1220"><g transform="translate(-40.00000000000003 -39.999999999999986)" lucid:page-tab-id="0_0"><path d="M0 0h1760v1360H0z" fill="#fff"/><path d="M227.35 551.33H495.1V797H227.35z" stroke="#000" stroke-width="2" fill="#fff"/><use xlink:href="#a" transform="matrix(1,0,0,1,232.34693877551013,556.3254684247052) translate(88.57499999999999 125.025)"/><path d="M1298.37 551.33h267.75V797h-267.75z" stroke="#000" stroke-width="2" fill="#fff"/><use xlink:href="#b" transform="matrix(1,0,0,1,1303.3673469387757,556.3254684247052) translate(77.6 125.025)"/><path d="M829.8 878.88h133.87v245.66H829.8z" stroke="#000" stroke-width="2" fill="#fff"/><path d="M843.18 878.88v245.66m107.1-245.66v245.66" stroke="#000" stroke-width="2" fill="none"/><g stroke="#000" stroke-width="2"><path d="M795.2 375.27c0-15.83 45.46-28.66 101.53-28.66s101.53 12.84 101.53 28.67v229.28c0 15.83-45.46 28.66-101.53 28.66S795.2 620.4 795.2 604.56z" fill="#fff"/><path d="M998.26 375.27c0 15.83-45.46 28.66-101.53 28.66S795.2 391.1 795.2 375.27" fill="none"/></g><path d="M497.1 674.16h148.06V489.9H775.7" stroke="#000" stroke-width="2" fill="none"/><path d="M497.13 675.16h-1.03v-2h1.03z"/><path d="M790.97 489.9l-14.26 4.65v-9.28z" stroke="#000" stroke-width="2"/><path d="M1000.26 489.9h148.05v184.26h130.57" stroke="#000" stroke-width="2" fill="none"/><path d="M1000.28 490.9h-1.02v-2h1.02z"/><path d="M1294.13 674.16l-14.26 4.63v-9.28z" stroke="#000" stroke-width="2"/><path d="M1432.24 799v202.7H983.18" stroke="#000" stroke-width="2" fill="none"/><path d="M1433.24 799h-2v-1h2z"/><path d="M967.9 1001.7l14.28-4.63v9.27z" stroke="#000" stroke-width="2"/><path d="M827.8 1001.7H361.22V816.5" stroke="#000" stroke-width="2" fill="none"/><path d="M828.8 1002.7h-1.03v-2h1.03z"/><path d="M361.22 801.22l4.64 14.27h-9.27z" stroke="#000" stroke-width="2"/><path d="M327.76 346.6H729.4v122.84H327.75z" stroke="#000" stroke-opacity="0" stroke-width="2" fill="#fff" fill-opacity="0"/><use xlink:href="#c" transform="matrix(1,0,0,1,332.75510204081644,351.60652324774463) translate(33.650000000000006 60.30625)"/><use xlink:href="#d" transform="matrix(1,0,0,1,332.75510204081644,351.60652324774463) translate(119.50000000000001 60.30625)"/><use xlink:href="#e" transform="matrix(1,0,0,1,332.75510204081644,351.60652324774463) translate(200.4 60.30625)"/><use xlink:href="#f" transform="matrix(1,0,0,1,332.75510204081644,351.60652324774463) translate(258.4 60.30625)"/><use xlink:href="#g" transform="matrix(1,0,0,1,332.75510204081644,351.60652324774463) translate(278.4 60.30625)"/><path d="M1097.55 346.6h401.63v153.14h-401.63z" stroke="#000" stroke-opacity="0" stroke-width="2" fill="#fff" fill-opacity="0"/><use xlink:href="#h" transform="matrix(1,0,0,1,1102.5510204081634,351.60652324774463) translate(18.25 63.9)"/><use xlink:href="#i" transform="matrix(1,0,0,1,1102.5510204081634,351.60652324774463) translate(126.05000000000001 63.9)"/><use xlink:href="#j" transform="matrix(1,0,0,1,1102.5510204081634,351.60652324774463) translate(189.95000000000002 63.9)"/><use xlink:href="#k" transform="matrix(1,0,0,1,1102.5510204081634,351.60652324774463) translate(269.90000000000003 63.9)"/><use xlink:href="#l" transform="matrix(1,0,0,1,1102.5510204081634,351.60652324774463) translate(295.85 63.9)"/><use xlink:href="#m" transform="matrix(1,0,0,1,1102.5510204081634,351.60652324774463) translate(169.5 85.5)"/><path d="M1298.37 1020.54H1700v197.35h-401.63z" stroke="#000" stroke-opacity="0" stroke-width="2" fill="#fff" fill-opacity="0"/><use xlink:href="#h" transform="matrix(1,0,0,1,1303.3673469387757,1025.5412907702985) translate(8.25 84.9)"/><use xlink:href="#d" transform="matrix(1,0,0,1,1303.3673469387757,1025.5412907702985) translate(116.05000000000001 84.9)"/><use xlink:href="#n" transform="matrix(1,0,0,1,1303.3673469387757,1025.5412907702985) translate(196.95000000000002 84.9)"/><use xlink:href="#f" transform="matrix(1,0,0,1,1303.3673469387757,1025.5412907702985) translate(287.8 84.9)"/><use xlink:href="#o" transform="matrix(1,0,0,1,1303.3673469387757,1025.5412907702985) translate(307.8 84.9)"/><use xlink:href="#p" transform="matrix(1,0,0,1,1303.3673469387757,1025.5412907702985) translate(362.8 84.9)"/><use xlink:href="#q" transform="matrix(1,0,0,1,1303.3673469387757,1025.5412907702985) translate(42.17500000000001 106.5)"/><use xlink:href="#e" transform="matrix(1,0,0,1,1303.3673469387757,1025.5412907702985) translate(125.07500000000002 106.5)"/><use xlink:href="#r" transform="matrix(1,0,0,1,1303.3673469387757,1025.5412907702985) translate(183.07500000000002 106.5)"/><use xlink:href="#s" transform="matrix(1,0,0,1,1303.3673469387757,1025.5412907702985) translate(202.025 106.5)"/><use xlink:href="#t" transform="matrix(1,0,0,1,1303.3673469387757,1025.5412907702985) translate(217.025 106.5)"/><use xlink:href="#u" transform="matrix(1,0,0,1,1303.3673469387757,1025.5412907702985) translate(264.975 106.5)"/><use xlink:href="#v" transform="matrix(1,0,0,1,1303.3673469387757,1025.5412907702985) translate(303.875 106.5)"/><path d="M60 998.43h401.63V1240H60z" stroke="#000" stroke-opacity="0" stroke-width="2" fill="#fff" fill-opacity="0"/><g><use xlink:href="#c" transform="matrix(1,0,0,1,65.00000000000003,1003.4316446911866) translate(14.224999999999994 101.4)"/><use xlink:href="#w" transform="matrix(1,0,0,1,65.00000000000003,1003.4316446911866) translate(100.075 101.4)"/><use xlink:href="#x" transform="matrix(1,0,0,1,65.00000000000003,1003.4316446911866) translate(187.025 101.4)"/><use xlink:href="#y" transform="matrix(1,0,0,1,65.00000000000003,1003.4316446911866) translate(286.875 101.4)"/><use xlink:href="#z" transform="matrix(1,0,0,1,65.00000000000003,1003.4316446911866) translate(327.775 101.4)"/><use xlink:href="#A" transform="matrix(1,0,0,1,65.00000000000003,1003.4316446911866) translate(22.724999999999966 123)"/><use xlink:href="#B" transform="matrix(1,0,0,1,65.00000000000003,1003.4316446911866) translate(57.724999999999966 123)"/><use xlink:href="#C" transform="matrix(1,0,0,1,65.00000000000003,1003.4316446911866) translate(109.57499999999996 123)"/><use xlink:href="#f" transform="matrix(1,0,0,1,65.00000000000003,1003.4316446911866) translate(196.52499999999998 123)"/><use xlink:href="#D" transform="matrix(1,0,0,1,65.00000000000003,1003.4316446911866) translate(216.52499999999998 123)"/><use xlink:href="#E" transform="matrix(1,0,0,1,65.00000000000003,1003.4316446911866) translate(282.375 123)"/><use xlink:href="#F" transform="matrix(1,0,0,1,65.00000000000003,1003.4316446911866) translate(354.27500000000003 123)"/><use xlink:href="#q" transform="matrix(1,0,0,1,65.00000000000003,1003.4316446911866) translate(58.599999999999994 144.6)"/><use xlink:href="#G" transform="matrix(1,0,0,1,65.00000000000003,1003.4316446911866) translate(141.5 144.6)"/><use xlink:href="#A" transform="matrix(1,0,0,1,65.00000000000003,1003.4316446911866) translate(190.5 144.6)"/><use xlink:href="#G" transform="matrix(1,0,0,1,65.00000000000003,1003.4316446911866) translate(225.5 144.6)"/><use xlink:href="#H" transform="matrix(1,0,0,1,65.00000000000003,1003.4316446911866) translate(274.5 144.6)"/></g><path d="M1568.12 674.16h39V305.6h-710.4v21.5" stroke="#000" stroke-width="2" fill="none"/><path d="M1568.15 675.16h-1.03v-2h1.03z"/><path d="M896.73 342.37l-4.63-14.27h9.27z" stroke="#000" stroke-width="2"/><path d="M1064.08 60h401.63v153.13H1064.1z" stroke="#000" stroke-opacity="0" stroke-width="2" fill="#fff" fill-opacity="0"/><g><use xlink:href="#h" transform="matrix(1,0,0,1,1069.0816326530612,64.99999999999999) translate(6.75 63.9)"/><use xlink:href="#I" transform="matrix(1,0,0,1,1069.0816326530612,64.99999999999999) translate(114.55000000000001 63.9)"/><use xlink:href="#e" transform="matrix(1,0,0,1,1069.0816326530612,64.99999999999999) translate(186.45000000000002 63.9)"/><use xlink:href="#J" transform="matrix(1,0,0,1,1069.0816326530612,64.99999999999999) translate(244.45000000000002 63.9)"/><use xlink:href="#K" transform="matrix(1,0,0,1,1069.0816326530612,64.99999999999999) translate(289.35 63.9)"/><use xlink:href="#L" transform="matrix(1,0,0,1,1069.0816326530612,64.99999999999999) translate(329.35 63.9)"/><use xlink:href="#u" transform="matrix(1,0,0,1,1069.0816326530612,64.99999999999999) translate(131.675 85.5)"/><use xlink:href="#M" transform="matrix(1,0,0,1,1069.0816326530612,64.99999999999999) translate(170.57500000000002 85.5)"/></g><path d="M776.73 480h240v60h-240z" stroke="#000" stroke-opacity="0" stroke-width="2" fill="#fff" fill-opacity="0"/><g><use xlink:href="#N" transform="matrix(1,0,0,1,781.7346938775154,485) translate(76.05 30.025)"/></g><path d="M840 971.7h103.27v60H840z" stroke="#000" stroke-opacity="0" stroke-width="2" fill="#fff" fill-opacity="0"/><g><use xlink:href="#O" transform="matrix(1,0,0,1,845,976.7071478140181) translate(20 17.525)"/><use xlink:href="#P" transform="matrix(1,0,0,1,845,976.7071478140181) translate(17.049999999999997 39.125)"/></g><defs><path d="M115-194c55 1 70 41 70 98S169 2 115 4C84 4 66-9 55-30l1 105H24l-1-265h31l2 30c10-21 28-34 59-34zm-8 174c40 0 45-34 45-75s-6-73-45-74c-42 0-51 32-51 76 0 43 10 73 51 73" id="Q"/><path d="M24 0v-261h32V0H24" id="R"/><path d="M141-36C126-15 110 5 73 4 37 3 15-17 15-53c-1-64 63-63 125-63 3-35-9-54-41-54-24 1-41 7-42 31l-33-3c5-37 33-52 76-52 45 0 72 20 72 64v82c-1 20 7 32 28 27v20c-31 9-61-2-59-35zM48-53c0 20 12 33 32 33 41-3 63-29 60-74-43 2-92-5-92 41" id="S"/><path d="M117-194c89-4 53 116 60 194h-32v-121c0-31-8-49-39-48C34-167 62-67 57 0H25l-1-190h30c1 10-1 24 2 32 11-22 29-35 61-36" id="T"/><path d="M114-163C36-179 61-72 57 0H25l-1-190h30c1 12-1 29 2 39 6-27 23-49 58-41v29" id="U"/><path d="M16-82v-28h88v28H16" id="V"/><path d="M115-194c53 0 69 39 70 98 0 66-23 100-70 100C84 3 66-7 56-30L54 0H23l1-261h32v101c10-23 28-34 59-34zm-8 174c40 0 45-34 45-75 0-40-5-75-45-74-42 0-51 32-51 76 0 43 10 73 51 73" id="W"/><path d="M100-194c62-1 85 37 85 99 1 63-27 99-86 99S16-35 15-95c0-66 28-99 85-99zM99-20c44 1 53-31 53-75 0-43-8-75-51-75s-53 32-53 75 10 74 51 75" id="X"/><path d="M59-47c-2 24 18 29 38 22v24C64 9 27 4 27-40v-127H5v-23h24l9-43h21v43h35v23H59v120" id="Y"/><g id="a"><use transform="matrix(0.05,0,0,0.05,0,0)" xlink:href="#Q"/><use transform="matrix(0.05,0,0,0.05,10,0)" xlink:href="#R"/><use transform="matrix(0.05,0,0,0.05,13.949999999999998,0)" xlink:href="#S"/><use transform="matrix(0.05,0,0,0.05,23.95,0)" xlink:href="#T"/><use transform="matrix(0.05,0,0,0.05,33.95,0)" xlink:href="#T"/><use transform="matrix(0.05,0,0,0.05,43.95,0)" xlink:href="#U"/><use transform="matrix(0.05,0,0,0.05,49.900000000000006,0)" xlink:href="#V"/><use transform="matrix(0.05,0,0,0.05,55.85,0)" xlink:href="#W"/><use transform="matrix(0.05,0,0,0.05,65.85000000000001,0)" xlink:href="#X"/><use transform="matrix(0.05,0,0,0.05,75.85000000000001,0)" xlink:href="#Y"/></g><path d="M206 0h-36l-40-164L89 0H53L-1-190h32L70-26l43-164h34l41 164 42-164h31" id="Z"/><path d="M96-169c-40 0-48 33-48 73s9 75 48 75c24 0 41-14 43-38l32 2c-6 37-31 61-74 61-59 0-76-41-82-99-10-93 101-131 147-64 4 7 5 14 7 22l-32 3c-4-21-16-35-41-35" id="aa"/><path d="M106-169C34-169 62-67 57 0H25v-261h32l-1 103c12-21 28-36 61-36 89 0 53 116 60 194h-32v-121c2-32-8-49-39-48" id="ab"/><g id="b"><use transform="matrix(0.05,0,0,0.05,0,0)" xlink:href="#Q"/><use transform="matrix(0.05,0,0,0.05,10,0)" xlink:href="#R"/><use transform="matrix(0.05,0,0,0.05,13.949999999999998,0)" xlink:href="#S"/><use transform="matrix(0.05,0,0,0.05,23.95,0)" xlink:href="#T"/><use transform="matrix(0.05,0,0,0.05,33.95,0)" xlink:href="#T"/><use transform="matrix(0.05,0,0,0.05,43.95,0)" xlink:href="#U"/><use transform="matrix(0.05,0,0,0.05,49.900000000000006,0)" xlink:href="#V"/><use transform="matrix(0.05,0,0,0.05,55.85,0)" xlink:href="#Z"/><use transform="matrix(0.05,0,0,0.05,68.80000000000001,0)" xlink:href="#S"/><use transform="matrix(0.05,0,0,0.05,78.80000000000001,0)" xlink:href="#Y"/><use transform="matrix(0.05,0,0,0.05,83.80000000000001,0)" xlink:href="#aa"/><use transform="matrix(0.05,0,0,0.05,92.80000000000001,0)" xlink:href="#ab"/></g><g id="c"><use transform="matrix(0.05,0,0,0.05,0,0)" xlink:href="#Q"/><use transform="matrix(0.05,0,0,0.05,10,0)" xlink:href="#R"/><use transform="matrix(0.05,0,0,0.05,13.949999999999998,0)" xlink:href="#S"/><use transform="matrix(0.05,0,0,0.05,23.95,0)" xlink:href="#T"/><use transform="matrix(0.05,0,0,0.05,33.95,0)" xlink:href="#T"/><use transform="matrix(0.05,0,0,0.05,43.95,0)" xlink:href="#U"/><use transform="matrix(0.05,0,0,0.05,49.900000000000006,0)" xlink:href="#V"/><use transform="matrix(0.05,0,0,0.05,55.85,0)" xlink:href="#W"/><use transform="matrix(0.05,0,0,0.05,65.85000000000001,0)" xlink:href="#X"/><use transform="matrix(0.05,0,0,0.05,75.85000000000001,0)" xlink:href="#Y"/></g><path d="M84 4C-5 8 30-112 23-190h32v120c0 31 7 50 39 49 72-2 45-101 50-169h31l1 190h-30c-1-10 1-25-2-33-11 22-28 36-60 37" id="ac"/><path d="M24-231v-30h32v30H24zM24 0v-190h32V0H24" id="ad"/><path d="M135-143c-3-34-86-38-87 0 15 53 115 12 119 90S17 21 10-45l28-5c4 36 97 45 98 0-10-56-113-15-118-90-4-57 82-63 122-42 12 7 21 19 24 35" id="ae"/><path d="M100-194c63 0 86 42 84 106H49c0 40 14 67 53 68 26 1 43-12 49-29l28 8c-11 28-37 45-77 45C44 4 14-33 15-96c1-61 26-98 85-98zm52 81c6-60-76-77-97-28-3 7-6 17-6 28h103" id="af"/><g id="d"><use transform="matrix(0.05,0,0,0.05,0,0)" xlink:href="#Q"/><use transform="matrix(0.05,0,0,0.05,10,0)" xlink:href="#ac"/><use transform="matrix(0.05,0,0,0.05,20,0)" xlink:href="#W"/><use transform="matrix(0.05,0,0,0.05,30,0)" xlink:href="#R"/><use transform="matrix(0.05,0,0,0.05,33.95,0)" xlink:href="#ad"/><use transform="matrix(0.05,0,0,0.05,37.900000000000006,0)" xlink:href="#ae"/><use transform="matrix(0.05,0,0,0.05,46.900000000000006,0)" xlink:href="#ab"/><use transform="matrix(0.05,0,0,0.05,56.900000000000006,0)" xlink:href="#af"/><use transform="matrix(0.05,0,0,0.05,66.9,0)" xlink:href="#ae"/></g><path d="M108 0H70L1-190h34L89-25l56-165h34" id="ag"/><g id="e"><use transform="matrix(0.05,0,0,0.05,0,0)" xlink:href="#af"/><use transform="matrix(0.05,0,0,0.05,10,0)" xlink:href="#ag"/><use transform="matrix(0.05,0,0,0.05,19,0)" xlink:href="#af"/><use transform="matrix(0.05,0,0,0.05,29,0)" xlink:href="#T"/><use transform="matrix(0.05,0,0,0.05,39,0)" xlink:href="#Y"/><use transform="matrix(0.05,0,0,0.05,44,0)" xlink:href="#ae"/></g><g id="f"><use transform="matrix(0.05,0,0,0.05,0,0)" xlink:href="#Y"/><use transform="matrix(0.05,0,0,0.05,5,0)" xlink:href="#X"/></g><path d="M85-194c31 0 48 13 60 33l-1-100h32l1 261h-30c-2-10 0-23-3-31C134-8 116 4 85 4 32 4 16-35 15-94c0-66 23-100 70-100zm9 24c-40 0-46 34-46 75 0 40 6 74 45 74 42 0 51-32 51-76 0-42-9-74-50-73" id="ah"/><path d="M33 0v-38h34V0H33" id="ai"/><g id="g"><use transform="matrix(0.05,0,0,0.05,0,0)" xlink:href="#ah"/><use transform="matrix(0.05,0,0,0.05,10,0)" xlink:href="#S"/><use transform="matrix(0.05,0,0,0.05,20,0)" xlink:href="#Y"/><use transform="matrix(0.05,0,0,0.05,25,0)" xlink:href="#S"/><use transform="matrix(0.05,0,0,0.05,35,0)" xlink:href="#ae"/><use transform="matrix(0.05,0,0,0.05,44,0)" xlink:href="#Y"/><use transform="matrix(0.05,0,0,0.05,49,0)" xlink:href="#X"/><use transform="matrix(0.05,0,0,0.05,59,0)" xlink:href="#U"/><use transform="matrix(0.05,0,0,0.05,64.95,0)" xlink:href="#af"/><use transform="matrix(0.05,0,0,0.05,74.95,0)" xlink:href="#ai"/></g><g id="h"><use transform="matrix(0.05,0,0,0.05,0,0)" xlink:href="#Q"/><use transform="matrix(0.05,0,0,0.05,10,0)" xlink:href="#R"/><use transform="matrix(0.05,0,0,0.05,13.949999999999998,0)" xlink:href="#S"/><use transform="matrix(0.05,0,0,0.05,23.95,0)" xlink:href="#T"/><use transform="matrix(0.05,0,0,0.05,33.95,0)" xlink:href="#T"/><use transform="matrix(0.05,0,0,0.05,43.95,0)" xlink:href="#U"/><use transform="matrix(0.05,0,0,0.05,49.900000000000006,0)" xlink:href="#V"/><use transform="matrix(0.05,0,0,0.05,55.85,0)" xlink:href="#Z"/><use transform="matrix(0.05,0,0,0.05,68.80000000000001,0)" xlink:href="#S"/><use transform="matrix(0.05,0,0,0.05,78.80000000000001,0)" xlink:href="#Y"/><use transform="matrix(0.05,0,0,0.05,83.80000000000001,0)" xlink:href="#aa"/><use transform="matrix(0.05,0,0,0.05,92.80000000000001,0)" xlink:href="#ab"/></g><path d="M145-31C134-9 116 4 85 4 32 4 16-35 15-94c0-59 17-99 70-100 32-1 48 14 60 33 0-11-1-24 2-32h30l-1 268h-32zM93-21c41 0 51-33 51-76s-8-73-50-73c-40 0-46 35-46 75s5 74 45 74" id="aj"/><g id="i"><use transform="matrix(0.05,0,0,0.05,0,0)" xlink:href="#aj"/><use transform="matrix(0.05,0,0,0.05,10,0)" xlink:href="#ac"/><use transform="matrix(0.05,0,0,0.05,20,0)" xlink:href="#af"/><use transform="matrix(0.05,0,0,0.05,30,0)" xlink:href="#U"/><use transform="matrix(0.05,0,0,0.05,35.95,0)" xlink:href="#ad"/><use transform="matrix(0.05,0,0,0.05,39.900000000000006,0)" xlink:href="#af"/><use transform="matrix(0.05,0,0,0.05,49.900000000000006,0)" xlink:href="#ae"/></g><g id="j"><use transform="matrix(0.05,0,0,0.05,0,0)" xlink:href="#ah"/><use transform="matrix(0.05,0,0,0.05,10,0)" xlink:href="#S"/><use transform="matrix(0.05,0,0,0.05,20,0)" xlink:href="#Y"/><use transform="matrix(0.05,0,0,0.05,25,0)" xlink:href="#S"/><use transform="matrix(0.05,0,0,0.05,35,0)" xlink:href="#ae"/><use transform="matrix(0.05,0,0,0.05,44,0)" xlink:href="#Y"/><use transform="matrix(0.05,0,0,0.05,49,0)" xlink:href="#X"/><use transform="matrix(0.05,0,0,0.05,59,0)" xlink:href="#U"/><use transform="matrix(0.05,0,0,0.05,64.95,0)" xlink:href="#af"/></g><path d="M101-234c-31-9-42 10-38 44h38v23H63V0H32v-167H5v-23h27c-7-52 17-82 69-68v24" id="ak"/><g id="k"><use transform="matrix(0.05,0,0,0.05,0,0)" xlink:href="#ak"/><use transform="matrix(0.05,0,0,0.05,5,0)" xlink:href="#X"/><use transform="matrix(0.05,0,0,0.05,15,0)" xlink:href="#U"/></g><path d="M210-169c-67 3-38 105-44 169h-31v-121c0-29-5-50-35-48C34-165 62-65 56 0H25l-1-190h30c1 10-1 24 2 32 10-44 99-50 107 0 11-21 27-35 58-36 85-2 47 119 55 194h-31v-121c0-29-5-49-35-48" id="al"/><path d="M177-190C167-65 218 103 67 71c-23-6-38-20-44-43l32-5c15 47 100 32 89-28v-30C133-14 115 1 83 1 29 1 15-40 15-95c0-56 16-97 71-98 29-1 48 16 59 35 1-10 0-23 2-32h30zM94-22c36 0 50-32 50-73 0-42-14-75-50-75-39 0-46 34-46 75s6 73 46 73" id="am"/><g id="l"><use transform="matrix(0.05,0,0,0.05,0,0)" xlink:href="#ac"/><use transform="matrix(0.05,0,0,0.05,10,0)" xlink:href="#Q"/><use transform="matrix(0.05,0,0,0.05,20,0)" xlink:href="#aa"/><use transform="matrix(0.05,0,0,0.05,29,0)" xlink:href="#X"/><use transform="matrix(0.05,0,0,0.05,39,0)" xlink:href="#al"/><use transform="matrix(0.05,0,0,0.05,53.95,0)" xlink:href="#ad"/><use transform="matrix(0.05,0,0,0.05,57.900000000000006,0)" xlink:href="#T"/><use transform="matrix(0.05,0,0,0.05,67.9,0)" xlink:href="#am"/></g><g id="m"><use transform="matrix(0.05,0,0,0.05,0,0)" xlink:href="#af"/><use transform="matrix(0.05,0,0,0.05,10,0)" xlink:href="#ag"/><use transform="matrix(0.05,0,0,0.05,19,0)" xlink:href="#af"/><use transform="matrix(0.05,0,0,0.05,29,0)" xlink:href="#T"/><use transform="matrix(0.05,0,0,0.05,39,0)" xlink:href="#Y"/><use transform="matrix(0.05,0,0,0.05,44,0)" xlink:href="#ae"/></g><g id="n"><use transform="matrix(0.05,0,0,0.05,0,0)" xlink:href="#T"/><use transform="matrix(0.05,0,0,0.05,10,0)" xlink:href="#X"/><use transform="matrix(0.05,0,0,0.05,20,0)" xlink:href="#Y"/><use transform="matrix(0.05,0,0,0.05,25,0)" xlink:href="#ad"/><use transform="matrix(0.05,0,0,0.05,28.950000000000003,0)" xlink:href="#ak"/><use transform="matrix(0.05,0,0,0.05,33.95,0)" xlink:href="#ad"/><use transform="matrix(0.05,0,0,0.05,37.900000000000006,0)" xlink:href="#aa"/><use transform="matrix(0.05,0,0,0.05,46.900000000000006,0)" xlink:href="#S"/><use transform="matrix(0.05,0,0,0.05,56.900000000000006,0)" xlink:href="#Y"/><use transform="matrix(0.05,0,0,0.05,61.900000000000006,0)" xlink:href="#ad"/><use transform="matrix(0.05,0,0,0.05,65.85000000000001,0)" xlink:href="#X"/><use transform="matrix(0.05,0,0,0.05,75.85000000000001,0)" xlink:href="#T"/></g><g id="o"><use transform="matrix(0.05,0,0,0.05,0,0)" xlink:href="#aj"/><use transform="matrix(0.05,0,0,0.05,10,0)" xlink:href="#ac"/><use transform="matrix(0.05,0,0,0.05,20,0)" xlink:href="#af"/><use transform="matrix(0.05,0,0,0.05,30,0)" xlink:href="#ac"/><use transform="matrix(0.05,0,0,0.05,40,0)" xlink:href="#af"/></g><g id="p"><use transform="matrix(0.05,0,0,0.05,0,0)" xlink:href="#ak"/><use transform="matrix(0.05,0,0,0.05,5,0)" xlink:href="#X"/><use transform="matrix(0.05,0,0,0.05,15,0)" xlink:href="#U"/></g><g id="q"><use transform="matrix(0.05,0,0,0.05,0,0)" xlink:href="#ac"/><use transform="matrix(0.05,0,0,0.05,10,0)" xlink:href="#Q"/><use transform="matrix(0.05,0,0,0.05,20,0)" xlink:href="#aa"/><use transform="matrix(0.05,0,0,0.05,29,0)" xlink:href="#X"/><use transform="matrix(0.05,0,0,0.05,39,0)" xlink:href="#al"/><use transform="matrix(0.05,0,0,0.05,53.95,0)" xlink:href="#ad"/><use transform="matrix(0.05,0,0,0.05,57.900000000000006,0)" xlink:href="#T"/><use transform="matrix(0.05,0,0,0.05,67.9,0)" xlink:href="#am"/></g><g id="r"><use transform="matrix(0.05,0,0,0.05,0,0)" xlink:href="#ad"/><use transform="matrix(0.05,0,0,0.05,3.95,0)" xlink:href="#T"/></g><use transform="matrix(0.05,0,0,0.05,0,0)" xlink:href="#S" id="s"/><g id="t"><use transform="matrix(0.05,0,0,0.05,0,0)" xlink:href="#am"/><use transform="matrix(0.05,0,0,0.05,10,0)" xlink:href="#ad"/><use transform="matrix(0.05,0,0,0.05,13.949999999999998,0)" xlink:href="#ag"/><use transform="matrix(0.05,0,0,0.05,22.95,0)" xlink:href="#af"/><use transform="matrix(0.05,0,0,0.05,32.95,0)" xlink:href="#T"/></g><g id="u"><use transform="matrix(0.05,0,0,0.05,0,0)" xlink:href="#Y"/><use transform="matrix(0.05,0,0,0.05,5,0)" xlink:href="#ad"/><use transform="matrix(0.05,0,0,0.05,8.95,0)" xlink:href="#al"/><use transform="matrix(0.05,0,0,0.05,23.9,0)" xlink:href="#af"/></g><g id="v"><use transform="matrix(0.05,0,0,0.05,0,0)" xlink:href="#U"/><use transform="matrix(0.05,0,0,0.05,5.95,0)" xlink:href="#S"/><use transform="matrix(0.05,0,0,0.05,15.949999999999998,0)" xlink:href="#T"/><use transform="matrix(0.05,0,0,0.05,25.950000000000003,0)" xlink:href="#am"/><use transform="matrix(0.05,0,0,0.05,35.95,0)" xlink:href="#af"/></g><g id="w"><use transform="matrix(0.05,0,0,0.05,0,0)" xlink:href="#aa"/><use transform="matrix(0.05,0,0,0.05,9,0)" xlink:href="#X"/><use transform="matrix(0.05,0,0,0.05,19,0)" xlink:href="#T"/><use transform="matrix(0.05,0,0,0.05,29,0)" xlink:href="#ae"/><use transform="matrix(0.05,0,0,0.05,38,0)" xlink:href="#ac"/><use transform="matrix(0.05,0,0,0.05,48,0)" xlink:href="#al"/><use transform="matrix(0.05,0,0,0.05,62.95,0)" xlink:href="#af"/><use transform="matrix(0.05,0,0,0.05,72.95,0)" xlink:href="#ae"/></g><g id="x"><use transform="matrix(0.05,0,0,0.05,0,0)" xlink:href="#T"/><use transform="matrix(0.05,0,0,0.05,10,0)" xlink:href="#X"/><use transform="matrix(0.05,0,0,0.05,20,0)" xlink:href="#Y"/><use transform="matrix(0.05,0,0,0.05,25,0)" xlink:href="#ad"/><use transform="matrix(0.05,0,0,0.05,28.950000000000003,0)" xlink:href="#ak"/><use transform="matrix(0.05,0,0,0.05,33.95,0)" xlink:href="#ad"/><use transform="matrix(0.05,0,0,0.05,37.900000000000006,0)" xlink:href="#aa"/><use transform="matrix(0.05,0,0,0.05,46.900000000000006,0)" xlink:href="#S"/><use transform="matrix(0.05,0,0,0.05,56.900000000000006,0)" xlink:href="#Y"/><use transform="matrix(0.05,0,0,0.05,61.900000000000006,0)" xlink:href="#ad"/><use transform="matrix(0.05,0,0,0.05,65.85000000000001,0)" xlink:href="#X"/><use transform="matrix(0.05,0,0,0.05,75.85000000000001,0)" xlink:href="#T"/><use transform="matrix(0.05,0,0,0.05,85.85000000000001,0)" xlink:href="#ae"/></g><g id="y"><use transform="matrix(0.05,0,0,0.05,0,0)" xlink:href="#ak"/><use transform="matrix(0.05,0,0,0.05,5,0)" xlink:href="#U"/><use transform="matrix(0.05,0,0,0.05,10.95,0)" xlink:href="#X"/><use transform="matrix(0.05,0,0,0.05,20.95,0)" xlink:href="#al"/></g><g id="z"><use transform="matrix(0.05,0,0,0.05,0,0)" xlink:href="#aj"/><use transform="matrix(0.05,0,0,0.05,10,0)" xlink:href="#ac"/><use transform="matrix(0.05,0,0,0.05,20,0)" xlink:href="#af"/><use transform="matrix(0.05,0,0,0.05,30,0)" xlink:href="#ac"/><use transform="matrix(0.05,0,0,0.05,40,0)" xlink:href="#af"/></g><g id="A"><use transform="matrix(0.05,0,0,0.05,0,0)" xlink:href="#S"/><use transform="matrix(0.05,0,0,0.05,10,0)" xlink:href="#T"/><use transform="matrix(0.05,0,0,0.05,20,0)" xlink:href="#ah"/></g><g id="B"><use transform="matrix(0.05,0,0,0.05,0,0)" xlink:href="#Z"/><use transform="matrix(0.05,0,0,0.05,12.950000000000001,0)" xlink:href="#U"/><use transform="matrix(0.05,0,0,0.05,18.900000000000002,0)" xlink:href="#ad"/><use transform="matrix(0.05,0,0,0.05,22.85,0)" xlink:href="#Y"/><use transform="matrix(0.05,0,0,0.05,27.85,0)" xlink:href="#af"/><use transform="matrix(0.05,0,0,0.05,37.85,0)" xlink:href="#ae"/></g><g id="C"><use transform="matrix(0.05,0,0,0.05,0,0)" xlink:href="#al"/><use transform="matrix(0.05,0,0,0.05,14.950000000000001,0)" xlink:href="#af"/><use transform="matrix(0.05,0,0,0.05,24.950000000000003,0)" xlink:href="#ae"/><use transform="matrix(0.05,0,0,0.05,33.95,0)" xlink:href="#ae"/><use transform="matrix(0.05,0,0,0.05,42.95,0)" xlink:href="#S"/><use transform="matrix(0.05,0,0,0.05,52.95,0)" xlink:href="#am"/><use transform="matrix(0.05,0,0,0.05,62.95,0)" xlink:href="#af"/><use transform="matrix(0.05,0,0,0.05,72.95,0)" xlink:href="#ae"/></g><path d="M30-248c118-7 216 8 213 122C240-48 200 0 122 0H30v-248zM63-27c89 8 146-16 146-99s-60-101-146-95v194" id="an"/><g id="D"><use transform="matrix(0.05,0,0,0.05,0,0)" xlink:href="#an"/><use transform="matrix(0.05,0,0,0.05,12.950000000000001,0)" xlink:href="#ad"/><use transform="matrix(0.05,0,0,0.05,16.900000000000002,0)" xlink:href="#ae"/><use transform="matrix(0.05,0,0,0.05,25.900000000000002,0)" xlink:href="#aa"/><use transform="matrix(0.05,0,0,0.05,34.900000000000006,0)" xlink:href="#X"/><use transform="matrix(0.05,0,0,0.05,44.900000000000006,0)" xlink:href="#U"/><use transform="matrix(0.05,0,0,0.05,50.85000000000001,0)" xlink:href="#ah"/></g><path d="M179-190L93 31C79 59 56 82 12 73V49c39 6 53-20 64-50L1-190h34L92-34l54-156h33" id="ao"/><g id="E"><use transform="matrix(0.05,0,0,0.05,0,0)" xlink:href="#T"/><use transform="matrix(0.05,0,0,0.05,10,0)" xlink:href="#X"/><use transform="matrix(0.05,0,0,0.05,20,0)" xlink:href="#Y"/><use transform="matrix(0.05,0,0,0.05,25,0)" xlink:href="#ad"/><use transform="matrix(0.05,0,0,0.05,28.950000000000003,0)" xlink:href="#ak"/><use transform="matrix(0.05,0,0,0.05,33.95,0)" xlink:href="#ao"/><use transform="matrix(0.05,0,0,0.05,42.95,0)" xlink:href="#ad"/><use transform="matrix(0.05,0,0,0.05,46.900000000000006,0)" xlink:href="#T"/><use transform="matrix(0.05,0,0,0.05,56.900000000000006,0)" xlink:href="#am"/></g><g id="F"><use transform="matrix(0.05,0,0,0.05,0,0)" xlink:href="#X"/><use transform="matrix(0.05,0,0,0.05,10,0)" xlink:href="#ak"/></g><g id="G"><use transform="matrix(0.05,0,0,0.05,0,0)" xlink:href="#af"/><use transform="matrix(0.05,0,0,0.05,10,0)" xlink:href="#ag"/><use transform="matrix(0.05,0,0,0.05,19,0)" xlink:href="#af"/><use transform="matrix(0.05,0,0,0.05,29,0)" xlink:href="#T"/><use transform="matrix(0.05,0,0,0.05,39,0)" xlink:href="#Y"/></g><g id="H"><use transform="matrix(0.05,0,0,0.05,0,0)" xlink:href="#ae"/><use transform="matrix(0.05,0,0,0.05,9,0)" xlink:href="#Y"/><use transform="matrix(0.05,0,0,0.05,14,0)" xlink:href="#S"/><use transform="matrix(0.05,0,0,0.05,24,0)" xlink:href="#U"/><use transform="matrix(0.05,0,0,0.05,29.950000000000003,0)" xlink:href="#Y"/><use transform="matrix(0.05,0,0,0.05,34.95,0)" xlink:href="#ad"/><use transform="matrix(0.05,0,0,0.05,38.900000000000006,0)" xlink:href="#T"/><use transform="matrix(0.05,0,0,0.05,48.900000000000006,0)" xlink:href="#am"/></g><g id="I"><use transform="matrix(0.05,0,0,0.05,0,0)" xlink:href="#ah"/><use transform="matrix(0.05,0,0,0.05,10,0)" xlink:href="#ad"/><use transform="matrix(0.05,0,0,0.05,13.949999999999998,0)" xlink:href="#ae"/><use transform="matrix(0.05,0,0,0.05,22.95,0)" xlink:href="#aa"/><use transform="matrix(0.05,0,0,0.05,31.950000000000003,0)" xlink:href="#S"/><use transform="matrix(0.05,0,0,0.05,41.95,0)" xlink:href="#U"/><use transform="matrix(0.05,0,0,0.05,47.900000000000006,0)" xlink:href="#ah"/><use transform="matrix(0.05,0,0,0.05,57.900000000000006,0)" xlink:href="#ae"/></g><g id="J"><use transform="matrix(0.05,0,0,0.05,0,0)" xlink:href="#X"/><use transform="matrix(0.05,0,0,0.05,10,0)" xlink:href="#R"/><use transform="matrix(0.05,0,0,0.05,13.949999999999998,0)" xlink:href="#ah"/><use transform="matrix(0.05,0,0,0.05,23.95,0)" xlink:href="#af"/><use transform="matrix(0.05,0,0,0.05,33.95,0)" xlink:href="#U"/></g><g id="K"><use transform="matrix(0.05,0,0,0.05,0,0)" xlink:href="#Y"/><use transform="matrix(0.05,0,0,0.05,5,0)" xlink:href="#ab"/><use transform="matrix(0.05,0,0,0.05,15,0)" xlink:href="#S"/><use transform="matrix(0.05,0,0,0.05,25,0)" xlink:href="#T"/></g><g id="L"><use transform="matrix(0.05,0,0,0.05,0,0)" xlink:href="#aa"/><use transform="matrix(0.05,0,0,0.05,9,0)" xlink:href="#ac"/><use transform="matrix(0.05,0,0,0.05,19,0)" xlink:href="#U"/><use transform="matrix(0.05,0,0,0.05,24.95,0)" xlink:href="#U"/><use transform="matrix(0.05,0,0,0.05,30.899999999999995,0)" xlink:href="#af"/><use transform="matrix(0.05,0,0,0.05,40.9,0)" xlink:href="#T"/><use transform="matrix(0.05,0,0,0.05,50.9,0)" xlink:href="#Y"/></g><g id="M"><use transform="matrix(0.05,0,0,0.05,0,0)" xlink:href="#Q"/><use transform="matrix(0.05,0,0,0.05,10,0)" xlink:href="#af"/><use transform="matrix(0.05,0,0,0.05,20,0)" xlink:href="#U"/><use transform="matrix(0.05,0,0,0.05,25.950000000000003,0)" xlink:href="#ad"/><use transform="matrix(0.05,0,0,0.05,29.899999999999995,0)" xlink:href="#X"/><use transform="matrix(0.05,0,0,0.05,39.9,0)" xlink:href="#ah"/><use transform="matrix(0.05,0,0,0.05,49.9,0)" xlink:href="#ad"/><use transform="matrix(0.05,0,0,0.05,53.85,0)" xlink:href="#aa"/><use transform="matrix(0.05,0,0,0.05,62.85,0)" xlink:href="#S"/><use transform="matrix(0.05,0,0,0.05,72.85,0)" xlink:href="#R"/><use transform="matrix(0.05,0,0,0.05,76.8,0)" xlink:href="#R"/><use transform="matrix(0.05,0,0,0.05,80.75,0)" xlink:href="#ao"/></g><g id="N"><use transform="matrix(0.05,0,0,0.05,0,0)" xlink:href="#an"/><use transform="matrix(0.05,0,0,0.05,12.950000000000001,0)" xlink:href="#S"/><use transform="matrix(0.05,0,0,0.05,22.950000000000003,0)" xlink:href="#Y"/><use transform="matrix(0.05,0,0,0.05,27.950000000000003,0)" xlink:href="#S"/><use transform="matrix(0.05,0,0,0.05,37.95,0)" xlink:href="#ae"/><use transform="matrix(0.05,0,0,0.05,46.95,0)" xlink:href="#Y"/><use transform="matrix(0.05,0,0,0.05,51.95,0)" xlink:href="#X"/><use transform="matrix(0.05,0,0,0.05,61.95,0)" xlink:href="#U"/><use transform="matrix(0.05,0,0,0.05,67.9,0)" xlink:href="#af"/></g><path d="M140-251c81 0 123 46 123 126C263-53 228-8 163 1c7 30 30 48 69 40v23c-55 16-95-15-103-61C56-3 17-48 17-125c0-80 42-126 123-126zm0 227c63 0 89-41 89-101s-29-99-89-99c-61 0-89 39-89 99S79-25 140-24" id="ap"/><g id="O"><use transform="matrix(0.05,0,0,0.05,0,0)" xlink:href="#ap"/><use transform="matrix(0.05,0,0,0.05,14,0)" xlink:href="#ac"/><use transform="matrix(0.05,0,0,0.05,24,0)" xlink:href="#af"/><use transform="matrix(0.05,0,0,0.05,34,0)" xlink:href="#ac"/><use transform="matrix(0.05,0,0,0.05,44,0)" xlink:href="#af"/></g><path d="M185-189c-5-48-123-54-124 2 14 75 158 14 163 119 3 78-121 87-175 55-17-10-28-26-33-46l33-7c5 56 141 63 141-1 0-78-155-14-162-118-5-82 145-84 179-34 5 7 8 16 11 25" id="aq"/><g id="P"><use transform="matrix(0.05,0,0,0.05,0,0)" xlink:href="#aq"/><use transform="matrix(0.05,0,0,0.05,12,0)" xlink:href="#af"/><use transform="matrix(0.05,0,0,0.05,22,0)" xlink:href="#U"/><use transform="matrix(0.05,0,0,0.05,27.950000000000003,0)" xlink:href="#ag"/><use transform="matrix(0.05,0,0,0.05,36.95,0)" xlink:href="#ad"/><use transform="matrix(0.05,0,0,0.05,40.900000000000006,0)" xlink:href="#aa"/><use transform="matrix(0.05,0,0,0.05,49.900000000000006,0)" xlink:href="#af"/></g></defs></g></svg>